<?xml version="1.0" encoding="utf-8"?>
<!-- Generator: Adobe Illustrator 20.1.0, SVG Export Plug-In . SVG Version: 6.00 Build 0)  -->
<svg version="1.1" id="Layer_1" xmlns="http://www.w3.org/2000/svg" xmlns:xlink="http://www.w3.org/1999/xlink" x="0px" y="0px" viewBox="0 0 691 517" enable-background="new 0 0 691 517" xml:space="preserve">
<path fill="#FFFFFF" d="M6.7,104.7C5.1,98.1,3.6,92,2,85.4c12.6-3.1,25-6.2,37.4-9.2c100.5-24.5,201-49,301.6-73.4
	c3.4-0.8,7.3-0.9,10.7-0.1c111.4,27,222.7,54.2,334.1,81.3c1.6,0.4,3.2,0.8,5.2,1.4c-1.6,6.4-3.1,12.6-4.7,19.4
	c-11.6-2.8-22.9-5.5-34.2-8.3C551.4,72,450.8,47.4,350.1,22.9c-2.3-0.6-5-0.5-7.3,0C232.6,49.8,122.4,76.6,12.1,103.5
	C10.6,103.9,8.9,104.2,6.7,104.7z"/>
<path fill="#FFFFFF" d="M689.7,497.4c0,6.6,0,12.8,0,19.4c-228.9,0-457.5,0-686.4,0c0-6.5,0-12.8,0-19.4
	C232,497.4,460.6,497.4,689.7,497.4z"/>
<path fill="#FFFFFF" d="M343.1,324c0-3.4,0-6.2,0-9.4c1-0.2,2.1-0.5,3.2-0.7c7.3-1.5,11.7-5.8,11.8-13.3c0.5-21.2,0.5-42.3,0.6-63.5
	c0-3.8,0-7.7-0.4-11.5c-0.9-7.8-3.3-10-11.1-10.8c-1.3-0.1-2.6-0.3-4.1-0.5c0-3.2,0-6.1,0-9.5c12.5,0,24.8,0.6,37.1-0.2
	c8-0.5,11.8,2.1,15.1,9.5c9.4,21.5,19.7,42.6,29.7,63.8c0.6,1.3,1.3,2.6,2.4,4.7c1-2.1,1.8-3.6,2.6-5.1
	c10.8-22.9,21.7-45.7,32.4-68.6c1.4-2.9,2.8-4.2,6.3-4.1c14.3,0.2,28.6,0.1,43.3,0.1c0,3.3,0,6.2,0,9.6c-1.8,0.1-3.6,0.2-5.4,0.4
	c-7.5,0.6-10.4,3.4-10.7,11.1c-0.3,7.3-0.1,14.7-0.1,22c0,16,0.2,32,0,48c-0.2,18.1,3.6,17.8,16.7,18.6c0,2.9,0,5.8,0,9.1
	c-21.2,0-42.6,0-64.3,0c0-2.9,0-5.8,0-9c1.2-0.2,2.3-0.4,3.4-0.4c9.6-0.5,12.5-2.8,12.6-12.2c0.3-22.5,0.2-45,0.2-67.5
	c0-0.6-0.3-1.1-0.7-2.6c-1.2,2.5-2.1,4-2.8,5.6c-12.9,27.6-25.8,55.1-38.7,82.8c-1.1,2.4-2,4.1-5.3,4.1c-3.2,0-4.2-1.6-5.4-4
	c-13-27.4-26-54.7-39.1-82c-0.8-1.6-1.6-3.2-3.4-4.7c0,1.4,0,2.8,0,4.1c0,17.5,0,35,0,52.5c0,2.5,0,5,0.2,7.5
	c0.9,11.5,4.4,15.2,16.2,16.8c0,3,0,6,0,9.4c-0.9,0.1-1.7,0.2-2.4,0.2C370,324,356.8,324,343.1,324z"/>
<path fill="#FFFFFF" d="M121.9,205.3c0,3.1,0,5.9,0,8.9c-1.1,0.2-2,0.5-2.9,0.6c-9.5,0.9-12,3.4-12.1,12.9c-0.1,9.2,0,18.3,0,27.9
	c16.2,0,32.1,0,48.9,0c0-3.9,0-8,0-12.1c-0.1-5.8,0.1-11.7-0.3-17.5c-0.7-8.2-3-10.3-11.2-11.1c-1-0.1-2-0.3-3.3-0.4
	c0-3,0-5.9,0-9.2c20.3,0,40.5,0,61.2,0c0,2.8,0,5.7,0,9.1c-1.5,0.2-3,0.4-4.6,0.6c-7.3,0.8-10.3,3.5-10.4,10.8
	c-0.2,25.7-0.2,51.3,0,77c0,7.8,3.2,10.6,11.1,11.3c1.3,0.1,2.6,0.3,4.2,0.4c0,3.1,0,6.1,0,9.3c-20.4,0-40.7,0-61.3,0c0-3,0-6,0-9.1
	c13.7-2.6,14.8-3.8,14.8-18c0-9.6,0-19.3,0-29.3c-16.3,0-32.2,0-48.9,0c0,2.9,0,6,0,9.1c0,7.3,0,14.7,0,22
	c0,12.8,1.8,14.8,14.8,15.9c0,3,0,6,0,9.4c-20.3,0-40.7,0-61.4,0c0-3,0-5.9,0-8.9c0.3-0.2,0.5-0.5,0.8-0.6
	c12.6-1.4,14.5-3.2,14.6-15.8c0.2-22.7,0-45.3,0-68c0-1.3-0.1-2.7-0.2-4c-0.8-8.7-3-10.9-11.8-11.6c-1-0.1-2-0.2-3.3-0.4
	c0-3,0-5.9,0-9.2C80.6,205.3,101,205.3,121.9,205.3z"/>
<path fill="#FFFFFF" d="M492.8,473.7c0-3.5,0-6.9,0-10.3c0.8-0.1,1.3-0.3,1.8-0.3c13.5-0.8,16.1-3.4,16.2-17.1c0.1-25.7,0-51.3,0-77
	c0-1.5-0.1-3-0.3-4.5c-1.1-8.9-3.6-11.4-12.7-12.3c-1.6-0.2-3.3-0.3-5.1-0.4c0-3.4,0-6.5,0-9.9c37.5,0,74.7,0,112.5,0
	c0.6,11.2,1.3,22.2,1.9,33.6c-3.9,0-7.3,0-10.5,0c-2.3-4.6-4.3-9.1-6.7-13.4c-2.9-5.3-7.4-8.6-13.7-8.6c-10,0-20,0-30.4,0
	c0,14.9,0,29.9,0,45c5.7,0,11.3,0.2,16.9-0.1c5.2-0.3,8-3.6,9-8.5c1.7-8.2,2.5-8.6,11.7-6.7c0,14.5,0,29.1,0,43.9c-3.6,0-6.8,0-10,0
	c-0.3-0.4-0.5-0.7-0.6-1c-1.6-13.3-3.8-15.3-17-15.3c-3.3,0-6.6,0-9.8,0c0,14.7-0.3,29,0.3,43.2c0.1,2.4,4.2,5.8,7.1,6.6
	c9.9,2.7,20.2,2.8,30-0.8c3.7-1.4,7.3-4.3,9.6-7.5c3.3-4.5,6-9.6,8.1-14.8c3.3-7.9,3.5-8.2,12.6-6.5c0,14.1,0,28.2,0,42.6
	C573.2,473.7,533.2,473.7,492.8,473.7z"/>
<path fill="#FFFFFF" d="M275.1,327.7c-9.5-2.1-19.4-3.2-28.5-6.4c-27.6-9.8-38.8-33.5-38.1-59.4c0.8-28,19.4-49.9,46.5-56.7
	c14.5-3.6,29-3.4,43.4,0.8c27.1,7.9,44.9,33.5,43.3,62.2c-1.6,28.8-21.9,52-50,56.8c-5.4,0.9-10.9,1.2-16.3,1.8
	C275.3,327.1,275.2,327.4,275.1,327.7z M306,265.4c-0.9-11.8-1.6-23.4-6.1-34.4c-4.6-11.2-13.4-16.9-25.3-16.8
	c-11.9,0.1-20.7,5.9-24.7,17.4c-2.3,6.7-3.6,13.8-4.3,20.9c-1.4,14.3-0.8,28.6,3.5,42.5c2.9,9.4,8.3,16.6,18.5,19.1
	c16,3.9,30.1-4.1,34.1-20.2C304,284.6,304.6,274.9,306,265.4z"/>
<path fill="#FFFFFF" d="M390.1,178.9c-12.3-6.5-24-12.1-35.2-18.7c-5.9-3.5-10.6-3.8-16.7-0.1c-9.8,6-20.2,10.9-30.4,16.2
	c-1.4,0.7-2.9,1.4-4.9,2.4c2.6-15.1,4.9-29.6,7.6-43.9c0.6-3.2-0.1-5.1-2.3-7.4c-10.1-10.6-20-21.4-29.6-31.7c7-1,15.6-2.3,24.2-3.6
	c5.6-0.8,11.2-1.8,16.8-2.3c3.7-0.4,5.8-1.9,7.4-5.4c6.2-13.1,12.7-26,19.5-39.7c6.5,13.1,12.9,25.5,18.6,38.1
	c2.2,5,5.4,6.6,10.4,7.2c12.4,1.5,24.7,3.4,37.1,5.2c1.1,0.2,2.2,0.5,2.9,0.7c-5.5,5.8-10.9,11.8-16.6,17.6
	c-4.6,4.8-9.4,9.5-14.3,14c-2.2,2-2.8,4-2.2,7C385.1,148.9,387.5,163.4,390.1,178.9z"/>
<path fill="#FFFFFF" d="M67.8,461.7c-1.2,3.4-2.3,6.6-3.4,10c-3.6,0-7.2,0-11.1,0c0-15,0-29.7,0-44.9c3.7,0,7.5,0,11,0
	c2.2,5.7,3.9,11.4,6.6,16.8c6.3,12.7,16.1,20.6,31,20.5c7.5-0.1,13.8-4.7,16.1-11.4c2.3-6.7,0.2-14.1-6.2-18.6
	c-5.4-3.8-11.4-6.8-17.2-10c-7.4-4.1-15.1-7.8-22.3-12.2c-17-10.3-23.6-29.1-17.1-47.1c6-16.5,25.2-27.6,43.3-25.4
	c8.9,1.1,16.6,4.6,24,11.2c1.4-8.4,6.1-10.9,13.9-8.3c0,12.4,0,25.1,0,38.1c-1.1,0.1-2,0.2-3,0.3c-5.3,0.9-8.3-0.6-9.8-6.5
	c-1.9-7.5-6.7-13.7-13-18.4c-4.9-3.6-10.3-5.3-16.4-4.8c-5.9,0.5-10.6,2.9-13.3,8.4c-2.7,5.6-2.3,11.4,1.8,15.9
	c3.1,3.5,7.2,6.4,11.3,8.7c11.4,6.2,23.2,11.6,34.5,17.9c10.1,5.7,16.3,14.7,18.4,26.1c4.3,23.3-11.2,44.6-34.8,48
	C95.6,478.5,85.1,475.1,67.8,461.7z"/>
<path fill="#FFFFFF" d="M416.9,463.4c0,3.4,0,6.7,0,10.3c-23.5,0-46.9,0-70.6,0c0-3.3,0-6.7,0-10.1c0.4-0.2,0.7-0.4,1-0.5
	c13.8-0.8,16.4-3.4,16.5-17.3c0.1-25.5,0-51,0-76.5c0-1.3,0-2.7-0.2-4c-1-9.7-3.6-12.3-13.4-13.2c-1.3-0.1-2.6-0.2-4.3-0.3
	c0-3.2,0-6.3,0-9.9c36.7,0,73.3,0,110.7,0c0,11.4,0,22.7,0,34.7c-2.6,0-5.5,0.2-8.2-0.1c-1-0.1-2-1.3-2.6-2.3
	c-0.7-1.1-0.9-2.5-1.4-3.7c-5.2-13.6-10.6-17.4-25-17.5c-6.8,0-13.6,0-20.7,0c0,15.4,0,30.3,0,46.2c6-0.6,12-0.3,17.3-1.9
	c6.7-2,5.2-9.3,7.1-14.5c3.4,0,6.7,0,10.3,0c0,14.9,0,29.7,0,44.8c-3.5,0-6.9,0-10.2,0c-4.3-17-7.3-19-24.1-16.4
	c0,14.3-0.2,28.6,0.1,42.8c0.1,4.5,3.4,7.5,8.1,8.2C410.3,462.9,413.3,463,416.9,463.4z"/>
<path fill="#FFFFFF" d="M223.5,463.5c0,3.5,0,6.7,0,10.3c-14.5,0-28.7,0-43.3,0c0-3.3,0-6.6,0-10.3c11.2-1.8,16-10.6,19.8-20
	c13.1-32.6,26-65.2,38.9-97.8c2.6-6.6,5.5-8.3,12.4-6.4c1.4,0.4,2.7,2.6,3.4,4.2c13.1,32.2,26.1,64.4,39.2,96.7
	c1.4,3.5,3.1,7,4.7,10.5c3.2,6.9,8,11.8,16.3,12.5c0,3.5,0,6.8,0,10.5c-21.5,0-43.1,0-65.1,0c0-3.3,0-6.7,0-10.2
	c2.7-0.3,5.4-0.4,7.9-1c3.9-0.9,5.8-3.5,4.5-7.4c-1.7-5-3.6-10-5.8-14.9c-0.4-1-2.3-1.8-3.5-1.8c-11.7-0.1-23.3-0.1-35,0
	c-1.1,0-2.9,0.7-3.2,1.5c-1.8,4.6-3.7,9.3-4.7,14.2c-0.9,4.3,1.4,7.4,5.9,8.3C218.3,462.7,220.7,463,223.5,463.5z M251.4,426.9
	c-5.5-13.1-10.7-25.5-16.4-39.3c-5.5,13.9-10.4,26.3-15.5,39.3C230.5,426.9,240.4,426.9,251.4,426.9z"/>
<path fill="#FFFFFF" d="M522.2,314.5c12.3-0.9,16.2-0.5,16.2-17.7c-0.1-22,0-44,0-66c0-1.7,0-3.3-0.2-5c-0.6-7.9-2.9-10.3-10.6-11.1
	c-1.6-0.2-3.3-0.3-5.3-0.5c0-2.9,0-5.8,0-9c33.7,0,67.2,0,101.3,0c0.6,10.1,1.1,20,1.6,29.8c-8.5,2-9.2,1.8-12.2-5.7
	c-3.8-9.6-10.2-14.7-20.9-14.1c-7.1,0.4-14.3,0.1-21.8,0.1c0,13.7,0,27,0,40.4c16.5,3.4,21.9,0.5,24.2-13.7c1.5-0.1,3.1-0.2,4.8-0.2
	c1.5,0,2.9,0.2,4.6,0.3c0,13.4,0,26.4,0,39.8c-3.1,0-6,0-9,0c-0.2-0.2-0.5-0.5-0.6-0.7c-1.4-12.2-3.3-14-15.8-14c-2.6,0-5.3,0-8.7,0
	c0,2.2,0,4.1,0,6c0,9.7,0,19.3,0.1,29c0.1,6.7,1.9,9.5,8.4,10.4c25.1,3.5,34.1-1,42.2-22.6c0.6-1.5,1.1-3.1,1.6-4.7
	c3.2,0,6.1,0,9.2,0c0,12.9,0,25.6,0,38.6c-36.7,0-72.7,0-109,0C522.2,320.6,522.2,317.7,522.2,314.5z"/>
<path fill="none" enable-background="new    " d="z"/>
</svg>
